<?xml version="1.0" standalone="no"?>
<!DOCTYPE svg PUBLIC "-//W3C//DTD SVG 20010904//EN" "http://www.w3.org/TR/2001/REC-SVG-20010904/DTD/svg10.dtd">
<svg version="1.0" xmlns="http://www.w3.org/2000/svg" width="840.000000pt" height="840.000000pt"
  viewBox="0 0 840.000000 840.000000" preserveAspectRatio="xMidYMid meet">
  <metadata>
    Created by potrace 1.14, written by Peter Selinger 2001-2017
  </metadata>
  <g transform="translate(0.000000,840.000000) scale(0.100000,-0.100000)" fill="#000000" stroke="none">
    <path d="M1265 8393 c-407 -53 -762 -259 -988 -573 -26 -36 -52 -71 -58 -78
-16 -19 -105 -200 -128 -262 -28 -72 -60 -195 -77 -295 -11 -66 -13 -598 -13
-2985 0 -3074 -1 -2959 44 -3133 9 -34 18 -66 19 -72 3 -20 37 -102 84 -205
28 -61 112 -193 167 -260 227 -280 541 -459 904 -515 129 -20 5848 -20 5966 0
174 30 284 64 420 132 373 185 644 515 746 908 50 190 48 60 47 3135 0 1587
-3 2914 -8 2950 -16 126 -32 194 -76 329 -25 74 -91 204 -156 302 -74 113
-258 301 -370 377 -147 100 -353 190 -509 221 -30 6 -67 14 -84 18 -30 8
-5873 14 -5930 6z" />
  </g>
</svg>