<?xml version="1.0" standalone="no"?>
<!DOCTYPE svg PUBLIC "-//W3C//DTD SVG 20010904//EN"
 "http://www.w3.org/TR/2001/REC-SVG-20010904/DTD/svg10.dtd">
<svg version="1.0" xmlns="http://www.w3.org/2000/svg"
 width="512.000000pt" height="512.000000pt" viewBox="0 0 512.000000 512.000000"
 preserveAspectRatio="xMidYMid meet">
<metadata>
Created by potrace 1.14, written by Peter Selinger 2001-2017
</metadata>
<g transform="translate(0.000000,512.000000) scale(0.100000,-0.100000)"
fill="#000000" stroke="none">
<path d="M2467 4874 c-1 -1 -42 -4 -92 -8 -49 -3 -99 -8 -110 -10 -11 -2 -42
-7 -70 -10 -27 -4 -98 -18 -157 -31 -101 -24 -123 -30 -158 -42 -8 -4 -20 -7
-26 -8 -76 -17 -404 -165 -474 -215 -16 -11 -31 -20 -34 -20 -3 0 -45 -28 -93
-61 -692 -482 -1062 -1257 -1000 -2094 4 -49 9 -99 11 -110 2 -11 7 -42 10
-68 14 -95 55 -264 89 -367 49 -146 154 -376 208 -452 11 -14 19 -29 19 -32 0
-4 44 -70 98 -146 87 -122 266 -315 381 -410 344 -286 777 -476 1194 -524 26
-4 68 -9 93 -12 143 -19 454 -3 624 30 95 19 102 21 180 41 177 45 405 140
549 227 34 21 65 38 68 38 9 0 204 142 264 192 386 321 666 777 773 1258 26
120 31 148 40 215 3 22 8 63 11 92 8 62 8 347 1 418 -28 269 -81 476 -179 705
-139 325 -366 632 -627 851 -36 30 -67 57 -70 60 -17 20 -224 156 -306 201
-199 110 -481 216 -649 243 -16 3 -50 9 -75 15 -58 12 -117 19 -210 26 -77 6
-279 11 -283 8z m288 -1583 c274 -76 483 -293 546 -569 16 -71 18 -213 4 -295
-46 -263 -238 -488 -494 -581 -108 -39 -244 -51 -376 -33 -198 26 -412 172
-521 354 -40 67 -81 163 -91 213 -25 129 -25 243 1 353 69 295 319 528 618
575 88 14 226 7 313 -17z"/>
<path d="M2502 2761 c-175 -60 -211 -279 -65 -400 60 -49 163 -61 235 -27 109
52 160 177 117 291 -44 119 -166 177 -287 136z m147 -142 c78 -77 9 -202 -98
-178 -122 27 -101 209 24 209 35 0 49 -6 74 -31z"/>
</g>
</svg>
