<svg width="1254" height="420" viewBox="0 0 1254 420" fill="none" xmlns="http://www.w3.org/2000/svg">
<path d="M79 332V89.5821C79 82.0909 89.1792 79.8348 92.3445 86.6244L205.358 329.042C207.521 333.683 204.134 339 199.013 339H86C82.134 339 79 335.866 79 332Z" fill="#7673FF"/>
<path d="M234.999 338.814C302.989 335.193 357 279.129 357 210.5C357 141.871 302.989 85.8071 234.999 82.1859C231.139 81.9803 228 85.134 228 89V332C228 335.866 231.139 339.02 234.999 338.814Z" fill="#7673FF"/>
<path d="M464.426 236.896H491.754V253H443.564V167.356H464.426V236.896ZM497.557 218.84C497.557 211.845 498.858 205.705 501.461 200.418C504.145 195.131 507.764 191.065 512.319 188.218C516.873 185.371 521.957 183.948 527.569 183.948C532.367 183.948 536.556 184.924 540.135 186.876C543.795 188.828 546.601 191.39 548.553 194.562V184.924H569.415V253H548.553V243.362C546.519 246.534 543.673 249.096 540.013 251.048C536.434 253 532.245 253.976 527.447 253.976C521.916 253.976 516.873 252.553 512.319 249.706C507.764 246.778 504.145 242.671 501.461 237.384C498.858 232.016 497.557 225.835 497.557 218.84ZM548.553 218.962C548.553 213.757 547.089 209.649 544.161 206.64C541.314 203.631 537.817 202.126 533.669 202.126C529.521 202.126 525.983 203.631 523.055 206.64C520.208 209.568 518.785 213.635 518.785 218.84C518.785 224.045 520.208 228.193 523.055 231.284C525.983 234.293 529.521 235.798 533.669 235.798C537.817 235.798 541.314 234.293 544.161 231.284C547.089 228.275 548.553 224.167 548.553 218.962ZM651.729 184.924V253H630.867V243.728C628.753 246.737 625.865 249.177 622.205 251.048C618.627 252.837 614.641 253.732 610.249 253.732C605.044 253.732 600.449 252.593 596.463 250.316C592.478 247.957 589.387 244.582 587.191 240.19C584.995 235.798 583.897 230.633 583.897 224.696V184.924H604.637V221.89C604.637 226.445 605.817 229.983 608.175 232.504C610.534 235.025 613.706 236.286 617.691 236.286C621.758 236.286 624.971 235.025 627.329 232.504C629.688 229.983 630.867 226.445 630.867 221.89V184.924H651.729ZM708.194 184.192C716.165 184.192 722.509 186.795 727.226 192C732.025 197.124 734.424 204.2 734.424 213.228V253H713.684V216.034C713.684 211.479 712.505 207.941 710.146 205.42C707.788 202.899 704.616 201.638 700.63 201.638C696.645 201.638 693.473 202.899 691.114 205.42C688.756 207.941 687.576 211.479 687.576 216.034V253H666.714V184.924H687.576V193.952C689.691 190.943 692.538 188.584 696.116 186.876C699.695 185.087 703.721 184.192 708.194 184.192ZM744.773 218.962C744.773 211.886 746.197 205.705 749.043 200.418C751.971 195.131 755.997 191.065 761.121 188.218C766.327 185.371 772.264 183.948 778.933 183.948C787.473 183.948 794.59 186.185 800.283 190.658C806.058 195.131 809.84 201.435 811.629 209.568H789.425C787.555 204.363 783.935 201.76 778.567 201.76C774.745 201.76 771.695 203.265 769.417 206.274C767.14 209.202 766.001 213.431 766.001 218.962C766.001 224.493 767.14 228.763 769.417 231.772C771.695 234.7 774.745 236.164 778.567 236.164C783.935 236.164 787.555 233.561 789.425 228.356H811.629C809.84 236.327 806.058 242.589 800.283 247.144C794.509 251.699 787.392 253.976 778.933 253.976C772.264 253.976 766.327 252.553 761.121 249.706C755.997 246.859 751.971 242.793 749.043 237.506C746.197 232.219 744.773 226.038 744.773 218.962ZM864.635 184.192C872.443 184.192 878.705 186.795 883.423 192C888.14 197.124 890.499 204.2 890.499 213.228V253H869.759V216.034C869.759 211.479 868.579 207.941 866.221 205.42C863.862 202.899 860.69 201.638 856.705 201.638C852.719 201.638 849.547 202.899 847.189 205.42C844.83 207.941 843.651 211.479 843.651 216.034V253H822.789V162.72H843.651V194.074C845.765 191.065 848.653 188.665 852.313 186.876C855.973 185.087 860.08 184.192 864.635 184.192ZM937.082 167.356C946.11 167.356 953.999 169.145 960.75 172.724C967.5 176.303 972.706 181.345 976.366 187.852C980.107 194.277 981.978 201.719 981.978 210.178C981.978 218.555 980.107 225.997 976.366 232.504C972.706 239.011 967.46 244.053 960.628 247.632C953.877 251.211 946.028 253 937.082 253H904.996V167.356H937.082ZM935.74 234.944C943.629 234.944 949.77 232.789 954.162 228.478C958.554 224.167 960.75 218.067 960.75 210.178C960.75 202.289 958.554 196.148 954.162 191.756C949.77 187.364 943.629 185.168 935.74 185.168H925.858V234.944H935.74ZM989.488 218.84C989.488 211.845 990.79 205.705 993.392 200.418C996.076 195.131 999.696 191.065 1004.25 188.218C1008.8 185.371 1013.89 183.948 1019.5 183.948C1024.3 183.948 1028.49 184.924 1032.07 186.876C1035.73 188.828 1038.53 191.39 1040.48 194.562V184.924H1061.35V253H1040.48V243.362C1038.45 246.534 1035.6 249.096 1031.94 251.048C1028.37 253 1024.18 253.976 1019.38 253.976C1013.85 253.976 1008.8 252.553 1004.25 249.706C999.696 246.778 996.076 242.671 993.392 237.384C990.79 232.016 989.488 225.835 989.488 218.84ZM1040.48 218.962C1040.48 213.757 1039.02 209.649 1036.09 206.64C1033.25 203.631 1029.75 202.126 1025.6 202.126C1021.45 202.126 1017.91 203.631 1014.99 206.64C1012.14 209.568 1010.72 213.635 1010.72 218.84C1010.72 224.045 1012.14 228.193 1014.99 231.284C1017.91 234.293 1021.45 235.798 1025.6 235.798C1029.75 235.798 1033.25 234.293 1036.09 231.284C1039.02 228.275 1040.48 224.167 1040.48 218.962ZM1145.98 184.924L1103.28 285.33H1080.83L1096.45 250.682L1068.75 184.924H1092.06L1107.79 227.502L1123.41 184.924H1145.98Z" fill="#333333"/>
</svg>
