<svg id="visual" viewBox="0 0 900 600" width="900" height="600" xmlns="http://www.w3.org/2000/svg"
  xmlns:xlink="http://www.w3.org/1999/xlink" version="1.1">
  <path
    d="M0 505L21.5 499.5C43 494 86 483 128.8 483C171.7 483 214.3 494 257.2 499.3C300 504.7 343 504.3 385.8 492.5C428.7 480.7 471.3 457.3 514.2 440.5C557 423.7 600 413.3 642.8 423.7C685.7 434 728.3 465 771.2 484.3C814 503.7 857 511.3 878.5 515.2L900 519L900 601L878.5 601C857 601 814 601 771.2 601C728.3 601 685.7 601 642.8 601C600 601 557 601 514.2 601C471.3 601 428.7 601 385.8 601C343 601 300 601 257.2 601C214.3 601 171.7 601 128.8 601C86 601 43 601 21.5 601L0 601Z"
    fill="#715DF2" stroke-linecap="round" stroke-linejoin="miter"></path>
</svg>