<svg id="visual" viewBox="0 0 960 1800" width="960" height="1800" xmlns="http://www.w3.org/2000/svg" xmlns:xlink="http://www.w3.org/1999/xlink" version="1.1"><path d="M911 1800L914.2 1750C917.3 1700 923.7 1600 926.8 1500C930 1400 930 1300 915.7 1200C901.3 1100 872.7 1000 867.8 900C863 800 882 700 890 600C898 500 895 400 895 300C895 200 898 100 899.5 50L901 0L960 0L960 50C960 100 960 200 960 300C960 400 960 500 960 600C960 700 960 800 960 900C960 1000 960 1100 960 1200C960 1300 960 1400 960 1500C960 1600 960 1700 960 1750L960 1800Z" fill="#3831c2"></path><path d="M844 1800L852 1750C860 1700 876 1600 868 1500C860 1400 828 1300 804 1200C780 1100 764 1000 751.2 900C738.3 800 728.7 700 725.5 600C722.3 500 725.7 400 727.3 300C729 200 729 100 729 50L729 0L902 0L900.5 50C899 100 896 200 896 300C896 400 899 500 891 600C883 700 864 800 868.8 900C873.7 1000 902.3 1100 916.7 1200C931 1300 931 1400 927.8 1500C924.7 1600 918.3 1700 915.2 1750L912 1800Z" fill="#423cda"></path><path d="M738 1800L749.2 1750C760.3 1700 782.7 1600 766.7 1500C750.7 1400 696.3 1300 674 1200C651.7 1100 661.3 1000 655 900C648.7 800 626.3 700 612 600C597.7 500 591.3 400 607.3 300C623.3 200 661.7 100 680.8 50L700 0L730 0L730 50C730 100 730 200 728.3 300C726.7 400 723.3 500 726.5 600C729.7 700 739.3 800 752.2 900C765 1000 781 1100 805 1200C829 1300 861 1400 869 1500C877 1600 861 1700 853 1750L845 1800Z" fill="#4b47f3"></path><path d="M633 1800L601 1750C569 1700 505 1600 490.5 1500C476 1400 511 1300 507.7 1200C504.3 1100 462.7 1000 405.2 900C347.7 800 274.3 700 292 600C309.7 500 418.3 400 472.7 300C527 200 527 100 527 50L527 0L701 0L681.8 50C662.7 100 624.3 200 608.3 300C592.3 400 598.7 500 613 600C627.3 700 649.7 800 656 900C662.3 1000 652.7 1100 675 1200C697.3 1300 751.7 1400 767.7 1500C783.7 1600 761.3 1700 750.2 1750L739 1800Z" fill="#5f59ff"></path><path d="M105 1800L140.2 1750C175.3 1700 245.7 1600 263.2 1500C280.7 1400 245.3 1300 226.2 1200C207 1100 204 1000 175.2 900C146.3 800 91.7 700 96.3 600C101 500 165 400 177.8 300C190.7 200 152.3 100 133.2 50L114 0L528 0L528 50C528 100 528 200 473.7 300C419.3 400 310.7 500 293 600C275.3 700 348.7 800 406.2 900C463.7 1000 505.3 1100 508.7 1200C512 1300 477 1400 491.5 1500C506 1600 570 1700 602 1750L634 1800Z" fill="#796fff"></path><path d="M0 1800L0 1750C0 1700 0 1600 0 1500C0 1400 0 1300 0 1200C0 1100 0 1000 0 900C0 800 0 700 0 600C0 500 0 400 0 300C0 200 0 100 0 50L0 0L115 0L134.2 50C153.3 100 191.7 200 178.8 300C166 400 102 500 97.3 600C92.7 700 147.3 800 176.2 900C205 1000 208 1100 227.2 1200C246.3 1300 281.7 1400 264.2 1500C246.7 1600 176.3 1700 141.2 1750L106 1800Z" fill="#8f85ff"></path></svg>